# xmcd
#
# Track frame offsets:
#	150
#	20374
#	35233
#	48067
#	62265
#	77183
#	94435
#	109676
#	124508
#	138604
#	150977
#	165263
#	175804
#	192205
#
# Disc length: 2736 seconds
# Revision: 0
# Processed by: cddbd v1.5.2PL0 Copyright (c) Steve Scherf et al.
# Submitted via: dBpowerAMP V12.0
#
DISCID=a90aae0e
DTITLE=The Williams River Rounders - The William River Ramblers
DYEAR=2017
DGENRE=Country
TTITLE0=Still Happy
TTITLE1=When the Children Come Home
TTITLE2=The Streets of Forbes
TTITLE3=Our Andy's Gone With Cattle
TTITLE4=Coal Wagons
TTITLE5=The Water Runs Deep
TTITLE6=The Last Sydney Flyer
TTITLE7=A Rose in the Garden Called Peace
TTITLE8=Kimberley Shore
TTITLE9=Happy on the Road
TTITLE10=My Lady and Me
TTITLE11=If you go your way
TTITLE12=Shootin' Through
TTITLE13=The White Rose cafe
EXTD=
EXTT0=
EXTT1=
EXTT2=
EXTT3=
EXTT4=
EXTT5=
EXTT6=
EXTT7=
EXTT8=
EXTT9=
EXTT10=
EXTT11=
EXTT12=
EXTT13=
PLAYORDER=
